<?xml version="1.0" encoding="utf-8"?>
<!-- Generator: Adobe Illustrator 15.1.0, SVG Export Plug-In . SVG Version: 6.00 Build 0)  -->
<!DOCTYPE svg PUBLIC "-//W3C//DTD SVG 1.1//EN" "http://www.w3.org/Graphics/SVG/1.1/DTD/svg11.dtd">
<svg version="1.1" id="Layer_1" xmlns="http://www.w3.org/2000/svg" xmlns:xlink="http://www.w3.org/1999/xlink" x="0px" y="0px"
	 width="2.835px" height="2.835px" viewBox="0 0 2.835 2.835" enable-background="new 0 0 2.835 2.835" xml:space="preserve">
<g>
	<path fill="#010101" d="M2.83,0.789l-0.51-0.77C2.312,0.005,2.298,0,2.287,0H0.091C0.042,0,0,0.044,0,0.101v2.633
		c0,0.057,0.041,0.102,0.091,0.102h2.653c0.051,0,0.092-0.045,0.092-0.102V0.81C2.835,0.801,2.833,0.792,2.83,0.789z M0.315,0.21
		c0-0.028,0.024-0.05,0.052-0.05H2.22c0.027,0,0.057,0.021,0.057,0.05L2.273,1.054C2.272,1.08,2.25,1.106,2.22,1.106H0.367
		c-0.027,0-0.052-0.022-0.052-0.052V0.21z M2.518,2.537C2.517,2.568,2.492,2.6,2.458,2.6H0.375c-0.031,0-0.059-0.027-0.059-0.063
		v-1.02c0-0.033,0.027-0.061,0.059-0.061h2.083c0.03,0,0.063,0.026,0.063,0.061L2.518,2.537z"/>
	<path fill="#010101" d="M2.185,2.152H0.652c-0.051,0-0.092,0.027-0.092,0.061c0,0.035,0.041,0.063,0.092,0.063h1.533
		c0.051,0,0.09-0.024,0.09-0.063C2.275,2.179,2.234,2.152,2.185,2.152z"/>
	<path fill="#010101" d="M2.185,1.712H0.652c-0.051,0-0.092,0.026-0.092,0.06c0,0.036,0.041,0.062,0.092,0.062h1.533
		c0.051,0,0.09-0.025,0.09-0.062C2.275,1.739,2.236,1.712,2.185,1.712z"/>
</g>
</svg>
