<?xml version="1.0" encoding="utf-8"?>
<!-- Generator: Adobe Illustrator 15.1.0, SVG Export Plug-In . SVG Version: 6.00 Build 0)  -->
<!DOCTYPE svg PUBLIC "-//W3C//DTD SVG 1.1//EN" "http://www.w3.org/Graphics/SVG/1.1/DTD/svg11.dtd">
<svg version="1.1" id="Layer_1" xmlns="http://www.w3.org/2000/svg" xmlns:xlink="http://www.w3.org/1999/xlink" x="0px" y="0px"
	 width="2.834px" height="2.834px" viewBox="0 0 2.834 2.834" enable-background="new 0 0 2.834 2.834" xml:space="preserve">
<g>
	<g transform="translate(1.000000, 0.000000)">
		<path fill="#434343" d="M1.711,0H1.018C0.949,0,0.894,0.056,0.894,0.123L1.179,0.41L0.836,0.754
			C0.801,0.787,0.783,0.832,0.783,0.879c0,0.045,0.019,0.09,0.053,0.125c0.068,0.068,0.18,0.068,0.25,0L1.429,0.66l0.282,0.284
			c0.068,0,0.123-0.056,0.123-0.124V0.125C1.834,0.056,1.779,0,1.711,0L1.711,0z"/>
		<path fill="#434343" d="M1.709,1.893L1.42,2.183L1.069,1.832c-0.069-0.069-0.181-0.069-0.25,0C0.75,1.9,0.75,2.013,0.819,2.08
			L1.17,2.431L0.891,2.709c0,0.067,0.057,0.123,0.123,0.123h0.695c0.068,0,0.125-0.056,0.125-0.123V2.017
			C1.834,1.949,1.779,1.893,1.709,1.893L1.709,1.893z"/>
		<path fill="#434343" d="M-0.34,0.408l0.284-0.283c0-0.068-0.056-0.123-0.124-0.123h-0.695C-0.943,0.002-1,0.057-1,0.125v0.692
			C-1,0.886-0.943,0.94-0.875,0.94l0.285-0.284l0.354,0.354c0.033,0.035,0.079,0.052,0.125,0.052s0.09-0.017,0.125-0.052
			c0.068-0.068,0.068-0.18,0-0.249L-0.34,0.408L-0.34,0.408z"/>
		<path fill="#434343" d="M-0.127,1.713L-0.59,2.178l-0.287-0.287C-0.944,1.891-1,1.945-1,2.015v0.696
			c0,0.068,0.056,0.123,0.123,0.123h0.693c0.068,0,0.123-0.055,0.123-0.123l-0.281-0.283l0.465-0.465c0.068-0.069,0.068-0.18,0-0.25
			C0.054,1.645-0.058,1.645-0.127,1.713L-0.127,1.713z"/>
	</g>
</g>
</svg>
