<?xml version="1.0" encoding="utf-8"?>
<!-- Generator: Adobe Illustrator 15.1.0, SVG Export Plug-In . SVG Version: 6.00 Build 0)  -->
<!DOCTYPE svg PUBLIC "-//W3C//DTD SVG 1.1//EN" "http://www.w3.org/Graphics/SVG/1.1/DTD/svg11.dtd">
<svg version="1.1" id="Layer_2" xmlns="http://www.w3.org/2000/svg" xmlns:xlink="http://www.w3.org/1999/xlink" x="0px" y="0px"
	 width="2.835px" height="2.835px" viewBox="0 0 2.835 2.835" enable-background="new 0 0 2.835 2.835" xml:space="preserve">
<path d="M2.803,0.042C2.787,0.016,2.759,0,2.729,0H0.104C0.075,0,0.046,0.016,0.033,0.042c-0.015,0.026-0.015,0.058,0,0.084
	L1.075,1.93C1.074,1.944,1.073,1.957,1.073,1.97v0.517c0,0.041,0.023,0.08,0.061,0.1l0.469,0.237
	c0.017,0.008,0.033,0.012,0.051,0.012c0.021,0,0.041-0.005,0.059-0.017c0.033-0.021,0.053-0.057,0.053-0.096V1.97
	c0-0.014,0-0.026-0.002-0.04l1.043-1.804C2.817,0.102,2.817,0.069,2.803,0.042z"/>
</svg>
