<?xml version="1.0" encoding="utf-8"?>
<!-- Generator: Adobe Illustrator 15.1.0, SVG Export Plug-In . SVG Version: 6.00 Build 0)  -->
<!DOCTYPE svg PUBLIC "-//W3C//DTD SVG 1.1//EN" "http://www.w3.org/Graphics/SVG/1.1/DTD/svg11.dtd">
<svg version="1.1" id="Layer_4" xmlns="http://www.w3.org/2000/svg" xmlns:xlink="http://www.w3.org/1999/xlink" x="0px" y="0px"
	 width="2.834px" height="2.834px" viewBox="0 0 2.834 2.834" enable-background="new 0 0 2.834 2.834" xml:space="preserve">
<g>
	<path fill="#707070" d="M0.291,1.693C0.662,2.063,1.255,2.08,1.645,1.74l0.179,0.18C1.798,1.981,1.811,2.058,1.862,2.106
		l0.677,0.679c0.066,0.065,0.178,0.065,0.244,0c0.067-0.068,0.067-0.179,0-0.246L2.106,1.863C2.056,1.812,1.981,1.799,1.92,1.825
		l-0.18-0.18c0.342-0.389,0.326-0.983-0.046-1.354c-0.387-0.389-1.015-0.389-1.403,0C-0.097,0.678-0.097,1.308,0.291,1.693z
		 M0.16,0.992c0-0.222,0.086-0.431,0.243-0.588C0.562,0.246,0.771,0.16,0.992,0.16s0.431,0.086,0.59,0.244
		c0.324,0.324,0.324,0.852,0,1.178C1.424,1.74,1.215,1.826,0.992,1.826c-0.222,0-0.431-0.088-0.589-0.244
		C0.246,1.424,0.16,1.214,0.16,0.992z"/>
	<path fill="#707070" d="M0.463,1.523c0.144,0.142,0.33,0.22,0.531,0.22c0.199,0,0.386-0.078,0.528-0.22
		c0.292-0.292,0.292-0.767,0-1.06C1.381,0.322,1.193,0.244,0.994,0.244c-0.201,0-0.39,0.078-0.531,0.219s-0.219,0.33-0.219,0.529
		C0.244,1.192,0.321,1.381,0.463,1.523z M1.108,1.582C1.102,1.586,1.094,1.588,1.086,1.588c-0.185,0.013-0.367-0.053-0.5-0.187
		C0.459,1.275,0.394,1.105,0.397,0.935c0-0.058,0.008-0.115,0.026-0.171C0.429,0.75,0.438,0.738,0.453,0.731
		C0.465,0.725,0.479,0.725,0.494,0.73c0.004,0.001,0.008,0.002,0.01,0.003C0.528,0.744,0.541,0.77,0.535,0.795
		c0,0.002,0,0.004,0,0.006C0.528,0.822,0.522,0.843,0.521,0.865C0.492,1.027,0.545,1.197,0.666,1.318
		C0.774,1.427,0.923,1.48,1.072,1.47c0.029-0.003,0.054,0.018,0.06,0.045c0,0.003,0.002,0.005,0.002,0.007
		c0,0.009,0,0.017-0.001,0.022c0,0.002-0.002,0.004-0.002,0.006C1.129,1.555,1.127,1.561,1.125,1.565
		C1.119,1.572,1.113,1.578,1.108,1.582z"/>
</g>
</svg>
