<?xml version="1.0" encoding="utf-8"?>
<!-- Generator: Adobe Illustrator 15.1.0, SVG Export Plug-In . SVG Version: 6.00 Build 0)  -->
<!DOCTYPE svg PUBLIC "-//W3C//DTD SVG 1.1//EN" "http://www.w3.org/Graphics/SVG/1.1/DTD/svg11.dtd">
<svg version="1.1" id="Layer_1" xmlns="http://www.w3.org/2000/svg" xmlns:xlink="http://www.w3.org/1999/xlink" x="0px" y="0px"
	 width="2.834px" height="2.834px" viewBox="0 0 2.834 2.834" enable-background="new 0 0 2.834 2.834" xml:space="preserve">
<path d="M2.068,0.395L0.534,1.931C0.477,1.987,0.448,2.063,0.448,2.138s0.029,0.148,0.086,0.207l0,0
	C0.59,2.401,0.665,2.431,0.739,2.431c0.076,0,0.15-0.029,0.207-0.086l1.531-1.53C2.521,0.77,2.557,0.717,2.58,0.66
	s0.035-0.119,0.035-0.183S2.604,0.352,2.58,0.294s-0.059-0.11-0.104-0.155l0,0c-0.045-0.045-0.098-0.08-0.154-0.104
	C2.264,0.012,2.202,0,2.139,0C2.076,0,2.014,0.012,1.956,0.036c-0.057,0.023-0.11,0.059-0.154,0.104L0.247,1.694
	C0.118,1.825,0.052,1.995,0.052,2.167c0,0.17,0.065,0.342,0.194,0.473h0.001c0.13,0.131,0.301,0.195,0.472,0.195
	c0.172,0,0.342-0.064,0.473-0.195l1.561-1.561c0.038-0.038,0.038-0.1,0-0.137c-0.038-0.039-0.101-0.039-0.138,0L1.054,2.503
	C0.961,2.597,0.839,2.642,0.719,2.642c-0.121,0-0.242-0.045-0.336-0.139l0,0C0.292,2.411,0.245,2.288,0.245,2.167
	s0.047-0.242,0.139-0.334l1.554-1.555c0.026-0.026,0.059-0.047,0.092-0.061C2.064,0.203,2.1,0.196,2.138,0.196
	s0.074,0.007,0.108,0.021c0.033,0.014,0.064,0.034,0.092,0.061l0,0C2.365,0.305,2.385,0.335,2.4,0.371
	C2.414,0.405,2.422,0.44,2.422,0.479c0,0.037-0.008,0.074-0.021,0.108C2.386,0.622,2.365,0.651,2.338,0.678L0.809,2.21
	c-0.02,0.02-0.045,0.027-0.07,0.027c-0.023,0-0.049-0.01-0.067-0.027l0,0C0.651,2.19,0.643,2.165,0.643,2.142
	c0-0.025,0.008-0.051,0.028-0.07l1.537-1.536c0.038-0.038,0.038-0.1,0-0.137C2.17,0.356,2.107,0.356,2.068,0.395z"/>
</svg>
