<?xml version="1.0" encoding="utf-8"?>
<!-- Generator: Adobe Illustrator 15.1.0, SVG Export Plug-In . SVG Version: 6.00 Build 0)  -->
<!DOCTYPE svg PUBLIC "-//W3C//DTD SVG 1.1//EN" "http://www.w3.org/Graphics/SVG/1.1/DTD/svg11.dtd">
<svg version="1.1" id="Layer_5" xmlns="http://www.w3.org/2000/svg" xmlns:xlink="http://www.w3.org/1999/xlink" x="0px" y="0px"
	 width="2.835px" height="2.835px" viewBox="0 0 2.835 2.835" enable-background="new 0 0 2.835 2.835" xml:space="preserve">
<g>
	<path d="M2.986,0.962H2.59v0.37v0.028V1.39H0.243V1.361V1.333v-0.37h-0.396c-0.117,0-0.211,0.074-0.211,0.164v0.082v0.043v0.116
		v0.427v0.311h0.202h0.003h0.305V1.794H0.23h0.074V2.74c0,0.054,0.041,0.096,0.094,0.096h2.039c0.054,0,0.095-0.042,0.095-0.096
		V1.794h0.009h0.145v0.311h0.308l0,0h0.206V1.794V1.368V1.251V1.208V1.126C3.198,1.037,3.103,0.962,2.986,0.962z M2.09,2.373H0.761
		c-0.043,0-0.08-0.027-0.08-0.063s0.037-0.062,0.08-0.062H2.09c0.043,0,0.079,0.026,0.079,0.062S2.133,2.373,2.09,2.373z M2.09,1.92
		H0.761c-0.043,0-0.08-0.028-0.08-0.062c0-0.034,0.037-0.062,0.08-0.062H2.09c0.043,0,0.079,0.027,0.079,0.062
		C2.169,1.892,2.133,1.92,2.09,1.92z M2.908,1.248c-0.051,0-0.092-0.041-0.092-0.092c0-0.049,0.041-0.09,0.092-0.09
		s0.091,0.041,0.091,0.09C2.999,1.208,2.958,1.248,2.908,1.248z"/>
	<path d="M2.53,0.633c0-0.024-0.011-0.049-0.026-0.067L1.965,0.029C1.948,0.01,1.923,0,1.898,0h-1.5
		C0.345,0,0.302,0.042,0.302,0.095v1.236h2.229L2.53,0.633L2.53,0.633z M1.92,0.611L1.919,0.156l0.477,0.455H1.92z"/>
</g>
</svg>
