<?xml version="1.0" encoding="utf-8"?>
<!-- Generator: Adobe Illustrator 15.1.0, SVG Export Plug-In . SVG Version: 6.00 Build 0)  -->
<!DOCTYPE svg PUBLIC "-//W3C//DTD SVG 1.1//EN" "http://www.w3.org/Graphics/SVG/1.1/DTD/svg11.dtd">
<svg version="1.1" id="Layer_5" xmlns="http://www.w3.org/2000/svg" xmlns:xlink="http://www.w3.org/1999/xlink" x="0px" y="0px"
	 width="2.835px" height="2.835px" viewBox="0 0 2.835 2.835" enable-background="new 0 0 2.835 2.835" xml:space="preserve">
<g>
	<path d="M2.664,1.055H2.349V1.35v0.022v0.024H0.483V1.373V1.351V1.056H0.168C0.075,1.056,0,1.115,0,1.187v0.065v0.034v0.092v0.339
		v0.248h0.161h0.002h0.243V1.717h0.066h0.059v0.752c0,0.043,0.033,0.076,0.075,0.076h1.622c0.043,0,0.076-0.033,0.076-0.076V1.717
		H2.31h0.115v0.248h0.246l0,0h0.164V1.717V1.378V1.285V1.251V1.186C2.833,1.115,2.757,1.055,2.664,1.055z M1.951,2.177H0.896
		c-0.035,0-0.064-0.021-0.064-0.05c0-0.029,0.029-0.05,0.064-0.05h1.055c0.035,0,0.064,0.021,0.064,0.05
		C2.015,2.156,1.986,2.177,1.951,2.177z M1.951,1.817H0.896c-0.035,0-0.064-0.022-0.064-0.049c0-0.027,0.029-0.049,0.064-0.049
		h1.055c0.035,0,0.064,0.021,0.064,0.049C2.015,1.795,1.986,1.817,1.951,1.817z M2.603,1.283c-0.041,0-0.074-0.033-0.074-0.073
		c0-0.039,0.033-0.071,0.074-0.071c0.039,0,0.072,0.032,0.072,0.071C2.675,1.251,2.642,1.283,2.603,1.283z"/>
	<path d="M2.302,0.793c0-0.019-0.01-0.039-0.021-0.053L1.852,0.313C1.839,0.298,1.819,0.29,1.799,0.29H0.606
		c-0.042,0-0.076,0.034-0.076,0.076v0.982h1.772V0.793L2.302,0.793z M1.816,0.776V0.414l0.378,0.362H1.816z"/>
</g>
</svg>
