<?xml version="1.0" encoding="utf-8"?>
<!-- Generator: Adobe Illustrator 15.1.0, SVG Export Plug-In . SVG Version: 6.00 Build 0)  -->
<!DOCTYPE svg PUBLIC "-//W3C//DTD SVG 1.1//EN" "http://www.w3.org/Graphics/SVG/1.1/DTD/svg11.dtd">
<svg version="1.1" id="Layer_5" xmlns="http://www.w3.org/2000/svg" xmlns:xlink="http://www.w3.org/1999/xlink" x="0px" y="0px"
	 width="2.835px" height="2.835px" viewBox="0 0 2.835 2.835" enable-background="new 0 0 2.835 2.835" xml:space="preserve">
<g>
	<path d="M0,1.399c0.004-0.285,0.106-0.563,0.287-0.782C0.359,0.53,0.439,0.455,0.529,0.391c0.179-0.129,0.391-0.207,0.613-0.229
		c0.336-0.033,0.664,0.067,0.924,0.28c0.078,0.063,0.146,0.137,0.207,0.216c0.104,0.139,0.178,0.293,0.219,0.461h0.305
		c0.014,0,0.026,0.007,0.033,0.021c0.007,0.012,0.007,0.026,0,0.038L2.392,1.94C2.388,1.946,2.384,1.951,2.378,1.955
		c-0.018,0.013-0.041,0.01-0.054-0.007C2.324,1.946,2.323,1.944,2.322,1.942L1.879,1.178c-0.007-0.012-0.007-0.027,0-0.039
		S1.9,1.12,1.914,1.12h0.281C2.162,1.016,2.111,0.917,2.045,0.829c-0.047-0.061-0.101-0.117-0.16-0.167
		C1.683,0.496,1.429,0.418,1.168,0.444C1.002,0.46,0.843,0.518,0.708,0.61C0.633,0.663,0.566,0.725,0.507,0.795
		c-0.289,0.352-0.299,0.85-0.025,1.212c0.045,0.062,0.1,0.118,0.16,0.167c0.159,0.133,0.354,0.208,0.562,0.221
		c0.037,0.002,0.071,0.021,0.094,0.051c0.007,0.008,0.011,0.017,0.015,0.023c0.004,0.012,0.01,0.022,0.015,0.033
		c0.019,0.04,0.014,0.087-0.011,0.123C1.291,2.662,1.25,2.682,1.206,2.68C0.931,2.667,0.674,2.569,0.462,2.395
		C0.385,2.332,0.316,2.258,0.255,2.179C0.086,1.958-0.003,1.68,0,1.399z"/>
</g>
</svg>
